<?xml version="1.0" standalone="no"?><!DOCTYPE svg PUBLIC "-//W3C//DTD SVG 1.1//EN" "http://www.w3.org/Graphics/SVG/1.1/DTD/svg11.dtd"><svg t="1744626358375" class="icon" viewBox="0 0 1024 1024" version="1.1" xmlns="http://www.w3.org/2000/svg" p-id="6171" xmlns:xlink="http://www.w3.org/1999/xlink" width="200" height="200"><path d="M365.351 720.407h297.914c77.431 0 145.653 39.393 185.743 99.225 70.476-79.155 113.299-183.473 113.299-297.793 0-247.424-200.576-448-448-448-247.422 0-448 200.576-448 448 0 114.32 42.823 218.639 113.301 297.793 40.089-59.832 108.313-99.225 185.743-99.225zM514.306 260.19c97.011 0 175.657 78.648 175.657 175.655 0 97.008-78.646 175.657-175.657 175.657-97.015 0-175.654-78.649-175.654-175.657-0.001-97.006 78.639-175.655 175.654-175.655z" fill="#84BBF8" p-id="6172"></path><path d="M514.306 611.503c97.011 0 175.657-78.649 175.657-175.657 0-97.007-78.646-175.655-175.657-175.655-97.015 0-175.654 78.648-175.654 175.655-0.001 97.008 78.639 175.657 175.654 175.657zM849.008 819.632c-40.09-59.832-108.313-99.225-185.743-99.225H365.351c-77.43 0-145.653 39.393-185.743 99.225 82.055 92.158 201.598 150.207 334.699 150.207 133.103 0 252.645-58.049 334.701-150.207z" fill="#2669B5" p-id="6173"></path></svg>