<?xml version="1.0" standalone="no"?><!DOCTYPE svg PUBLIC "-//W3C//DTD SVG 1.1//EN" "http://www.w3.org/Graphics/SVG/1.1/DTD/svg11.dtd"><svg t="1746951170673" class="icon" viewBox="0 0 1024 1024" version="1.1" xmlns="http://www.w3.org/2000/svg" p-id="7583" xmlns:xlink="http://www.w3.org/1999/xlink" width="200" height="200"><path d="M861.9 159.5H687.3v-6.3c0-15.5-9.7-27.7-22.2-27.7-12.4 0-22.2 12.2-22.2 27.7v6.3H535v-6.3c0-15.5-9.7-27.7-22.2-27.7-12.4 0-22.2 12.2-22.2 27.7v6.3H379.7v-6.3c0-15.5-9.7-27.7-22.2-27.7-12.4 0-22.2 12.2-22.2 27.7v6.3H160.8c-44.1 0-80.2 36.1-80.2 80.2v581c0 44.3 36.2 80.5 80.5 80.5h700.6c44.3 0 80.5-36.2 80.5-80.5V237.1c-0.2-44.2-36.3-77.6-80.3-77.6zM613.3 510.2c-0.1 4.3-1.4 8.4-3.8 12-52.3 78.7-84.1 149.2-104.4 241.4-2.5 11.5-12.5 19.8-24.2 19.8-16.4 0-28.4-15.4-24.2-31.3 16.7-62.6 52.9-184.8 104.2-235.3H426.3c-13.5 0-24.3-11-24-24.5 0.3-13.1 10.9-23.6 24-23.6H592c12.1 0 21.9 10 21.7 22.1l-0.4 19.4z m284.4-146.9H125V233.9c0-16.6 13.4-30 30-30h180.3V240c0 15.5 9.7 27.7 22.2 27.7 12.4 0 22.2-12.2 22.2-27.7v-36.1h110.9V240c0 15.5 9.7 27.7 22.2 27.7 12.4 0 22.2-12.2 22.2-27.7v-36.1h108V240c0 15.5 9.7 27.7 22.2 27.7 12.4 0 22.2-12.2 22.2-27.7v-36.1h180.3c16.5 0 30 13.5 30 30v129.4z" fill="#3259CE" p-id="7584"></path></svg>