<?xml version="1.0" standalone="no"?><!DOCTYPE svg PUBLIC "-//W3C//DTD SVG 1.1//EN" "http://www.w3.org/Graphics/SVG/1.1/DTD/svg11.dtd"><svg t="1744459549642" class="icon" viewBox="0 0 1024 1024" version="1.1" xmlns="http://www.w3.org/2000/svg" p-id="7074" xmlns:xlink="http://www.w3.org/1999/xlink" width="200" height="200"><path d="M867.37 170.57c-90.05-95.28-230.68-105.61-331.51-30.76-13.76 10.22-32.15 9.99-45.74-0.49-44.98-34.67-98.26-51.81-151.53-51.81-66.28 0-132.56 26.68-183.12 80.34-97.7 103.68-100.55 271.33-8.57 378.64 2.86 3.34 5.72 6.67 8.57 9.7L483.99 905.1c15.78 16.76 41.37 16.77 57.16 0.02l326.22-345.9c4-4.24 7.71-8.19 11.14-12.73 89.13-107.32 85.41-273.15-11.14-375.92z" fill="#d81e06" p-id="7075"></path><path d="M232.36 481.16c-12.59 0-24.14-8.35-27.65-21.07-16.16-58.55-8.56-119.89 21.42-172.72 29.97-52.83 78.72-90.82 137.27-106.98 15.28-4.22 31.09 4.75 35.31 20.03 4.22 15.28-4.75 31.09-20.03 35.31-90.35 24.94-143.56 118.73-118.62 209.08 4.22 15.28-4.75 31.09-20.03 35.31-2.57 0.71-5.15 1.04-7.67 1.04z" fill="#FFFFFF" p-id="7076"></path></svg>