<?xml version="1.0" standalone="no"?><!DOCTYPE svg PUBLIC "-//W3C//DTD SVG 1.1//EN" "http://www.w3.org/Graphics/SVG/1.1/DTD/svg11.dtd"><svg t="1744016866547" class="icon" viewBox="0 0 1024 1024" version="1.1" xmlns="http://www.w3.org/2000/svg" p-id="4329" xmlns:xlink="http://www.w3.org/1999/xlink" width="200" height="200"><path d="M955.734 206C993.436 206 1024 236.544 1024 274.222V751.78C1024 789.456 993.436 820 955.734 820H68.266C30.564 820 0 789.456 0 751.778V274.22C0 236.544 30.564 206 68.266 206h887.468z m0 34.112H68.266c-17.504 0-31.932 13.168-33.904 30.132l-0.228 3.98v477.554c0 17.494 13.176 31.91 30.152 33.88l3.98 0.23h887.468c17.504 0 31.932-13.168 33.904-30.132l0.228-3.98V274.224c0-17.494-13.176-31.91-30.152-33.88l-3.98-0.23z m-79.238 94.83l14.746 26.606c-45.876 16.374-97.484 26.198-154.01 28.654v73.68h163.43v27.834h-62.668v214.9h-29.08v-214.9h-71.68v15.554c-2.868 81.458-26.216 146.542-70.452 195.662l-20.89-22.104c38.502-41.752 59.392-99.878 62.668-173.558v-142.038c62.26-1.228 118.374-11.46 167.936-30.29zM403 329.62c0 26.606 0 51.576 0.82 74.908h81.51v28.654h-81.1c2.048 70.404 6.554 124.436 13.106 162.914 9.012 46.664 19.66 70.406 31.95 72.042 8.192-1.636 16.794-26.606 24.986-75.316l23.346 18.828c-13.516 58.944-29.49 88.416-48.332 88.416-13.926 0-26.624-10.642-37.274-31.928-12.288-24.56-21.3-57.716-27.034-100.286-4.506-36.02-7.372-81.048-9.01-134.67H246.12v-28.654h129.024c-0.82-23.74-0.82-48.71-0.82-74.908z m-198.246 126.484v178.47c12.288-11.872 24.576-24.97 37.684-39.296l7.782 31.108c-22.528 24.56-46.284 46.256-71.68 65.084l-11.468-26.196c5.734-4.912 9.01-10.644 9.01-16.784v-164.142H118.736v-28.244h86.016z m156.878 41.342v27.426h-38.504v110.93c18.024-4.094 36.046-8.596 53.248-13.508v27.424c-35.634 10.234-74.136 18.83-115.096 25.788l-7.374-27.834a631.08 631.08 0 0 0 40.14-6.14v-116.66h-38.5v-27.426h106.086z m298.598-130.986v247.646h-82.33v30.7h-29.492V366.46h111.82z m-28.672 27.834h-53.658v191.978h53.658v-191.978zM167.888 334.942c26.214 20.876 47.924 41.752 65.946 63.036l-20.07 20.468c-16.384-20.058-38.502-41.344-66.356-63.448z m270.336-5.732c17.614 19.648 31.13 36.84 40.96 51.576l-20.48 14.328c-10.24-15.964-24.166-33.566-41.37-53.214z" fill="#FF1949" p-id="4330"></path></svg>