<?xml version="1.0" standalone="no"?><!DOCTYPE svg PUBLIC "-//W3C//DTD SVG 1.1//EN" "http://www.w3.org/Graphics/SVG/1.1/DTD/svg11.dtd"><svg t="1744459782361" class="icon" viewBox="0 0 1024 1024" version="1.1" xmlns="http://www.w3.org/2000/svg" p-id="10143" xmlns:xlink="http://www.w3.org/1999/xlink" width="200" height="200"><path d="M512 864c194.56 0 352-158.08 352-352 0-194.56-158.08-352-352-352S160 317.44 160 512C160 705.92 317.44 864 512 864L512 864zM512 224c159.018667 0 288 128.981333 288 288s-128.981333 288-288 288S224 670.464 224 512C224 352.981333 352.981333 224 512 224L512 224zM509.056 576l136.874667 0c16.298667 0 29.056-12.757333 29.056-29.056s-12.757333-29.056-29.056-29.056l-107.776 0L538.154667 349.056c0-16.298667-12.757333-29.056-29.056-29.056S480 332.757333 480 349.056l0 197.845333C480 563.242667 492.757333 576 509.056 576L509.056 576z" fill="#2c2c2c" p-id="10144"></path></svg>