<?xml version="1.0" standalone="no"?><!DOCTYPE svg PUBLIC "-//W3C//DTD SVG 1.1//EN" "http://www.w3.org/Graphics/SVG/1.1/DTD/svg11.dtd"><svg t="1744637424235" class="icon" viewBox="0 0 1024 1024" version="1.1" xmlns="http://www.w3.org/2000/svg" p-id="4469" xmlns:xlink="http://www.w3.org/1999/xlink" width="200" height="200"><path d="M881.408 874.666667a21.333333 21.333333 0 0 1-15.104-6.229334l-147.925333-147.925333a21.333333 21.333333 0 0 1 0-30.165333 21.333333 21.333333 0 0 1 30.165333 0l147.968 147.925333a21.333333 21.333333 0 0 1-15.104 36.437333zM512 149.333333a334.592 334.592 0 1 1-334.592 334.592A334.976 334.976 0 0 1 512 149.333333z m0 626.517334a291.925333 291.925333 0 1 0-291.925333-291.925334A292.266667 292.266667 0 0 0 512 775.850667z" p-id="4470" fill="#707070"></path></svg>