<?xml version="1.0" ?><svg id="Icons" viewBox="0 0 48 48" xmlns="http://www.w3.org/2000/svg"><defs><style>.cls-1,.cls-8{fill:#45413c;}.cls-1{opacity:0.15;}.cls-2{fill:#a86c4d;}.cls-3{fill:#de926a;}.cls-11,.cls-12,.cls-13,.cls-4{fill:none;}.cls-18,.cls-19,.cls-4,.cls-7,.cls-8{stroke:#45413c;}.cls-11,.cls-12,.cls-13,.cls-18,.cls-19,.cls-4,.cls-7,.cls-8{stroke-linecap:round;stroke-linejoin:round;}.cls-5,.cls-7{fill:#ffcebf;}.cls-6{fill:#ffb59e;}.cls-9{fill:#ff6242;}.cls-10{fill:#ffa694;}.cls-11{stroke:#48cf3e;}.cls-12{stroke:#ff4064;}.cls-13{stroke:#ffb700;}.cls-14{fill:#bf8df2;}.cls-15{fill:#9f5ae5;}.cls-16{fill:#daedf7;}.cls-17{fill:#e8f4fa;}.cls-18{fill:#c0dceb;}.cls-19{fill:#87898c;}</style></defs><title/><ellipse class="cls-1" cx="24" cy="45.5" data-name="&lt;Ellipse&gt;" id="_Ellipse_" rx="13.5" ry="1.5"/><path class="cls-2" d="M24,6.32A10.88,10.88,0,0,1,34.88,17.19V31.38a1.24,1.24,0,0,1-.77,1.14h0a27.09,27.09,0,0,1-20.22,0h0a1.24,1.24,0,0,1-.77-1.14V17.19A10.88,10.88,0,0,1,24,6.32Z" data-name="&lt;Path&gt;" id="_Path_"/><path class="cls-3" d="M24,6.32A10.88,10.88,0,0,0,13.12,17.19v3a10.88,10.88,0,0,1,21.76,0v-3A10.88,10.88,0,0,0,24,6.32Z" data-name="&lt;Path&gt;" id="_Path_2"/><path class="cls-4" d="M24,6.32A10.88,10.88,0,0,1,34.88,17.19V31.38a1.24,1.24,0,0,1-.77,1.14h0a27.09,27.09,0,0,1-20.22,0h0a1.24,1.24,0,0,1-.77-1.14V17.19A10.88,10.88,0,0,1,24,6.32Z" data-name="&lt;Path&gt;" id="_Path_3"/><path class="cls-5" d="M26.54,31.49V29.72a2.54,2.54,0,1,0-5.08,0v1.77A11.89,11.89,0,0,0,12.12,43.1V45H35.88V43.1A11.89,11.89,0,0,0,26.54,31.49Z" data-name="&lt;Path&gt;" id="_Path_4"/><path class="cls-6" d="M26.54,31.49V29.72a2.54,2.54,0,1,0-5.08,0v1.77A11.89,11.89,0,0,0,12.12,43.1V45h0a11.89,11.89,0,0,1,9.33-11V32.17a2.54,2.54,0,1,1,5.08,0V34a11.89,11.89,0,0,1,9.33,11h0V43.1A11.89,11.89,0,0,0,26.54,31.49Z" data-name="&lt;Path&gt;" id="_Path_5"/><path class="cls-4" d="M26.54,31.49V29.72a2.54,2.54,0,1,0-5.08,0v1.77A11.89,11.89,0,0,0,12.12,43.1V45H35.88V43.1A11.89,11.89,0,0,0,26.54,31.49Z" data-name="&lt;Path&gt;" id="_Path_6"/><g data-name="&lt;Group&gt;" id="_Group_"><path class="cls-7" d="M33.06,19.47a8.77,8.77,0,0,1-5.67-5L26.77,13a15.92,15.92,0,0,1-9.95,6.18l-1.89.34a1.81,1.81,0,0,0,0,3.62h.12a9,9,0,0,0,17.9,0h.11a1.81,1.81,0,1,0,0-3.62Z" data-name="&lt;Path&gt;" id="_Path_7"/></g><path class="cls-8" d="M18.57,20.91a.77.77,0,1,0,.77-.77A.76.76,0,0,0,18.57,20.91Z" data-name="&lt;Path&gt;" id="_Path_8"/><path class="cls-8" d="M29.43,20.91a.77.77,0,1,1-.77-.77A.76.76,0,0,1,29.43,20.91Z" data-name="&lt;Path&gt;" id="_Path_9"/><g data-name="&lt;Group&gt;" id="_Group_2"><g data-name="&lt;Group&gt;" id="_Group_3"><g data-name="&lt;Group&gt;" id="_Group_4"><g data-name="&lt;Group&gt;" id="_Group_5"><g data-name="&lt;Group&gt;" id="_Group_6"><g data-name="&lt;Group&gt;" id="_Group_7"><g data-name="&lt;Group&gt;" id="_Group_8"><path class="cls-9" d="M21.16,25.6a.44.44,0,0,0-.33.16.42.42,0,0,0-.1.35,3.32,3.32,0,0,0,6.54,0,.42.42,0,0,0-.1-.35.42.42,0,0,0-.33-.16Z" data-name="&lt;Path&gt;" id="_Path_10"/><path class="cls-10" d="M24,27a4,4,0,0,0-2.52.77,3.36,3.36,0,0,0,5,0A4,4,0,0,0,24,27Z" data-name="&lt;Path&gt;" id="_Path_11"/></g></g></g></g></g></g></g><g data-name="&lt;Group&gt;" id="_Group_9"><path class="cls-4" d="M21.16,25.6a.44.44,0,0,0-.33.16.42.42,0,0,0-.1.35,3.32,3.32,0,0,0,6.54,0,.42.42,0,0,0-.1-.35.42.42,0,0,0-.33-.16Z" data-name="&lt;Path&gt;" id="_Path_12"/></g><ellipse class="cls-6" cx="18.06" cy="24.19" data-name="&lt;Ellipse&gt;" id="_Ellipse_2" rx="1" ry="0.6"/><ellipse class="cls-6" cx="29.94" cy="24.19" data-name="&lt;Ellipse&gt;" id="_Ellipse_3" rx="1" ry="0.6"/><g data-name="&lt;Group&gt;" id="_Group_10"><path class="cls-11" d="M39.6,28.61a1.3,1.3,0,1,1-1.31-1.29A1.31,1.31,0,0,1,39.6,28.61Z" data-name="&lt;Path&gt;" id="_Path_13"/><path class="cls-11" d="M46.07,27.26A1.3,1.3,0,1,1,44.76,26,1.3,1.3,0,0,1,46.07,27.26Z" data-name="&lt;Path&gt;" id="_Path_14"/><polyline class="cls-11" data-name="&lt;Path&gt;" id="_Path_15" points="39.59 28.61 39.55 22.77 46.01 20.13 46.07 27.26"/></g><g data-name="&lt;Group&gt;" id="_Group_11"><path class="cls-12" d="M7.62,22.21A1.64,1.64,0,1,1,6,20.58,1.64,1.64,0,0,1,7.62,22.21Z" data-name="&lt;Path&gt;" id="_Path_16"/><polyline class="cls-12" data-name="&lt;Path&gt;" id="_Path_17" points="7.62 22.21 7.57 14.84 10.04 16.46"/></g><g data-name="&lt;Group&gt;" id="_Group_12"><path class="cls-13" d="M38.64,7.58a1.28,1.28,0,1,1-1.29-1.27A1.3,1.3,0,0,1,38.64,7.58Z" data-name="&lt;Path&gt;" id="_Path_18"/><polyline class="cls-13" data-name="&lt;Path&gt;" id="_Path_19" points="38.64 7.58 38.59 1.82 40.52 3.09"/></g><path class="cls-14" d="M30.61,33.23c-1.31,3.48-3.13,4.25-6.61,6-3.44-1.73-5.29-2.53-6.61-6a11.77,11.77,0,0,0-3.2,3.17,8.75,8.75,0,0,1,2.87,6.19V45H30.94V42.59a8.75,8.75,0,0,1,2.87-6.19A11.77,11.77,0,0,0,30.61,33.23Z" data-name="&lt;Path&gt;" id="_Path_20"/><path class="cls-15" d="M30.61,33.23a10.52,10.52,0,0,1-.92,1.9,11.91,11.91,0,0,1,3.09,2.42,11.64,11.64,0,0,1,1-1.15A11.77,11.77,0,0,0,30.61,33.23Z"/><path class="cls-15" d="M18.32,35.12a10.09,10.09,0,0,1-.93-1.89,11.77,11.77,0,0,0-3.2,3.17,11.64,11.64,0,0,1,1,1.15A12.21,12.21,0,0,1,18.32,35.12Z"/><path class="cls-4" d="M30.61,33.23c-1.31,3.48-3.13,4.25-6.61,6-3.44-1.73-5.29-2.53-6.61-6a11.77,11.77,0,0,0-3.2,3.17,8.75,8.75,0,0,1,2.87,6.19V45H30.94V42.59a8.75,8.75,0,0,1,2.87-6.19A11.77,11.77,0,0,0,30.61,33.23Z" data-name="&lt;Path&gt;" id="_Path_21"/><rect class="cls-16" data-name="&lt;Rectangle&gt;" height="8.13" id="_Rectangle_" rx="1.7" ry="1.7" width="5.81" x="21.09" y="28.81"/><path class="cls-17" d="M25.2,28.81H22.8a1.71,1.71,0,0,0-1.71,1.7v1.72a1.71,1.71,0,0,1,1.71-1.7h2.4a1.71,1.71,0,0,1,1.71,1.7V30.51A1.71,1.71,0,0,0,25.2,28.81Z" data-name="&lt;Path&gt;" id="_Path_22"/><rect class="cls-4" data-name="&lt;Rectangle&gt;" height="8.13" id="_Rectangle_2" rx="1.7" ry="1.7" width="5.81" x="21.09" y="28.81"/><line class="cls-4" data-name="&lt;Path&gt;" id="_Path_23" x1="25.32" x2="26.91" y1="31" y2="31"/><line class="cls-4" data-name="&lt;Path&gt;" id="_Path_24" x1="25.32" x2="26.91" y1="32.87" y2="32.87"/><line class="cls-4" data-name="&lt;Path&gt;" id="_Path_25" x1="25.32" x2="26.91" y1="34.75" y2="34.75"/><line class="cls-4" data-name="&lt;Path&gt;" id="_Path_26" x1="21.09" x2="22.68" y1="31" y2="31"/><line class="cls-4" data-name="&lt;Path&gt;" id="_Path_27" x1="21.09" x2="22.68" y1="32.87" y2="32.87"/><line class="cls-4" data-name="&lt;Path&gt;" id="_Path_28" x1="21.09" x2="22.68" y1="34.75" y2="34.75"/><path class="cls-18" d="M22.17,36.94h3.67a0,0,0,0,1,0,0V38a.68.68,0,0,1-.68.68H22.85a.68.68,0,0,1-.68-.68v-1.1A0,0,0,0,1,22.17,36.94Z" data-name="&lt;Rectangle&gt;" id="_Rectangle_3"/><rect class="cls-19" data-name="&lt;Rectangle&gt;" height="6.28" id="_Rectangle_4" width="1.86" x="23.07" y="38.72"/></svg>